<svg height='300px' width='300px'  fill="#FFFFFF" xmlns="http://www.w3.org/2000/svg" xmlns:xlink="http://www.w3.org/1999/xlink" version="1.1" x="0px" y="0px" viewBox="0 0 60 60" style="enable-background:new 0 0 60 60;" xml:space="preserve"><path d="M8.2975464,29.6002808c0,0.5499878,0.4499512,1,1,1h10.039978c0.5499878,0,1-0.4500122,1-1s-0.4500122-1-1-1H9.2975464  C8.7474976,28.6002808,8.2975464,29.050293,8.2975464,29.6002808z"></path><path d="M10.3775024,26.7002563h5.5800171c0.5499878,0,1-0.4499512,1-1c0-0.5499878-0.4500122-1-1-1h-5.5800171  c-0.5499878,0-1,0.4500122-1,1C9.3775024,26.2503052,9.8275146,26.7002563,10.3775024,26.7002563z"></path><path d="M5.9974976,33.5003052c0,0.5599976,0.4500122,1,1,1h10.0300293c0.5599976,0,1-0.4400024,1-1c0-0.5500488-0.4400024-1-1-1  H6.9974976C6.4475098,32.5003052,5.9974976,32.9502563,5.9974976,33.5003052z"></path><path d="M36.7474976,11.5202637c0.0100098,2.9500122,2.2900391,5.2700195,5.1799927,5.2700195c0,0,0,0,0.0100098,0  c1.3699951,0,2.7399902-0.5700073,3.7300415-1.5700073c1-1,1.5499878-2.2999878,1.539978-3.6699829  c0-1.4200439-0.5499878-2.75-1.539978-3.7300415c-1.0100098-0.9899902-2.4000244-1.5299683-3.8099976-1.5099487  C38.9675293,6.3302612,36.7175293,8.6203003,36.7474976,11.5202637z"></path><path d="M50.8275146,25.5603027c-2.5800171-0.0599976-4.4699707-0.1000366-5.5899658-0.0900269  c-0.5600586,0.0100098-0.8000488-0.0800171-1.1400146-0.7000122c-0.6000366-1.0899658-1.210022-2.1799927-1.8500366-3.25  c-0.0299683-0.0599976-0.0700073-0.1099854-0.1199951-0.1599731c-0.0299683-0.0400391-0.0799561-0.0800171-0.1199951-0.1199951  l-6.6499634-6.3699951c-2.7600098-2.6400146-7.0300293-2.9400024-10.1500244-0.7200317  c-3.5499878,2.539978-7.5599976,5.6099854-7.6300049,5.6699829c-0.5999756,0.5-1.0800171,1.3099976-1.2399902,2.1199951  c-0.2399902,1.3000488,0.3800049,2.5,1.6400146,3.1400146c1.1900024,0.6000366,2.4400024,0.4400024,3.5299683-0.4400024  c0.7900391-0.6399536,1.5800171-1.289978,2.3699951-1.9299927c0.960022-0.789978,1.9200439-1.5700073,2.8900146-2.3499756  c0.1400146-0.1099854,0.2299805-0.1700439,0.289978-0.2000122c0.9200439,0.1500244,1.8500366,0.3499756,2.7600098,0.5499878  l-0.6499634,1.0200195c-3.1900024,5.039978-6.4800415,10.25-10.4500122,14.789978  c-0.0599976,0.0599976-0.2600098,0.1500244-0.4500122,0.1300049c-0.6900024-0.0200195-1.9799805-0.039978-3.4299927-0.0599976  c-1.3099976-0.0299683-2.7399902-0.0499878-3.960022-0.0700073c-0.9199829-0.0100098-1.8299561,0.3300171-2.5,0.9899902  c-0.6699829,0.6500244-1.039978,1.5300293-1.039978,2.460022c0,0.9199829,0.3499756,1.7700195,0.9799805,2.4199829  c0.6199951,0.6400146,1.460022,1.0100098,2.3599854,1.0499878l8.6000366,0.3000488  c1.7999878,0.1699829,3.1699829-0.4299927,4.2199707-1.8500366c0.8300171-1.1399536,1.710022-2.2399902,2.6400146-3.3899536  c0.210022-0.25,0.4100342-0.5,0.6099854-0.75c1.3800049,0.9699707,2.7300415,1.9199829,4.1000366,2.8899536l1.7699585,1.2399902  c-0.4599609,0.8900146-0.9099731,1.7600098-1.3599854,2.6200562c-0.6499634,1.25-1.289978,2.4699707-1.9199829,3.6999512  c-1.0800171,2.1000366-0.5499878,4.0900269,1.3399658,5.0900269c0.5100098,0.2700195,1.0500488,0.3999634,1.5800171,0.3999634  c0.3200073,0,0.6300049-0.0499878,0.9500122-0.1399536c0.9400024-0.2999878,1.7700195-1.0499878,2.3300171-2.1000366  c1.4699707-2.8099976,2.9400024-5.6300049,4.3899536-8.4499512c1.1500244-2.2200317,0.7400513-3.9400024-1.289978-5.4100342  c-1.7199707-1.2600098-3.460022-2.5100098-5.2199707-3.7799683l-0.4299927-0.3099976l1.8299561-2.7900391  c0.8200073-1.2600098,1.6400146-2.5200195,2.4800415-3.7999878l0.0899658,0.1500244  c0.5200195,0.9199829,1.0100098,1.789978,1.4899902,2.6599731c0.6799927,1.2700195,1.7700195,1.9299927,3.2399902,1.9799805  l8.6500244,0.1799927c0.8699951-0.0099487,1.7299805-0.3499756,2.3400269-0.9799805  c0.6099854-0.6400146,0.9400024-1.5100098,0.8899536-2.3900146C53.9075317,26.9002686,52.5175171,25.6102905,50.8275146,25.5603027z  "></path></svg>